
<svg xmlns="http://www.w3.org/2000/svg" viewBox="0 0 24 24" fill="#ffffff"><path d="M6.76 10.941c0 .656.074 1.203.222 1.621.149.421.366.779.642 1.038.088.103.128.21.128.32 0 .141-.088.283-.263.424l-.868.58c-.124.078-.242.118-.352.118-.136 0-.272-.068-.408-.204-.19-.204-.358-.43-.507-.707-.137-.283-.27-.617-.41-1.010-1.025 1.211-2.313 1.819-3.864 1.819-1.102 0-1.981-.315-2.637-.949-.655-.63-.987-1.473-.987-2.525 0-1.12.394-2.03 1.182-2.722.788-.693 1.837-1.04 3.148-1.04.437 0 .889.034 1.363.097.475.064.967.159 1.484.283v-.943c0-.978-.205-1.668-.612-2.056-.412-.395-1.11-.59-2.095-.59-.45 0-.913.054-1.386.165a10.597 10.597 0 00-1.385.436c-.203.083-.36.132-.46.147-.1.023-.174.03-.227.03-.202 0-.304-.146-.304-.441v-.698c0-.232.03-.4.096-.503a1.048 1.048 0 01.382-.302 8.299 8.299 0 011.715-.62C4.05 3.032 4.787 3 5.591 3c1.698 0 2.95.385 3.75 1.158.799.77 1.2 1.937 1.2 3.5v3.284zm-5.347 1.573c.43 0 .88-.077 1.348-.233a2.806 2.806 0 001.173-.747c.202-.248.35-.528.445-.843.095-.312.143-.688.143-1.131v-.545a10.427 10.427 0 00-1.181-.215 9.804 9.804 0 00-1.208-.073c-.857 0-1.5.171-1.913.517-.414.346-.626.837-.626 1.474 0 .597.155 1.045.46 1.348.301.303.73.448 1.36.448zm10.402 1.147c-.257 0-.431-.049-.532-.14-.101-.094-.19-.309-.267-.636l-2.978-9.792c-.078-.33-.116-.546-.116-.65 0-.265.134-.413.403-.413h1.652c.26 0 .437.05.533.144.102.096.187.311.264.636l2.13 8.381 1.975-8.381c.065-.33.146-.54.241-.636.1-.095.288-.144.536-.144h1.35c.26 0 .443.049.54.144.097.096.186.306.241.636l2 8.45 2.189-8.45c.078-.33.168-.54.264-.636.102-.095.28-.144.533-.144h1.57c.268 0 .402.138.402.413 0 .082-.01.17-.03.259a1.871 1.871 0 01-.09.396l-3.052 9.792c-.078.33-.168.54-.267.635-.102.091-.275.14-.533.14h-1.454c-.257 0-.442-.048-.536-.14-.095-.097-.186-.312-.24-.647l-1.963-8.174-1.95 8.169c-.065.33-.152.544-.247.647-.095.092-.28.14-.536.14h-1.455zm16.968.284c-.745 0-1.488-.085-2.227-.26-.74-.174-1.315-.363-1.732-.57-.233-.126-.397-.273-.475-.43a1.044 1.044 0 01-.121-.495v-.728c0-.296.11-.442.329-.442.085 0 .172.017.257.044.089.022.216.073.386.141a7.954 7.954 0 001.62.518c.609.126 1.206.19 1.79.19.952 0 1.688-.171 2.21-.513.52-.343.783-.83.783-1.466 0-.43-.136-.786-.406-1.067-.267-.282-.773-.53-1.523-.75l-2.181-.68c-1.094-.341-1.9-.85-2.417-1.518-.512-.663-.769-1.396-.769-2.19 0-.63.136-1.18.402-1.657.267-.475.631-.88 1.095-1.214.463-.341 1-.599 1.606-.78a7.3 7.3 0 012.007-.27c.352 0 .714.022 1.079.063.37.04.714.099 1.042.17.318.078.616.161.899.254.282.097.51.192.691.29.229.12.398.245.51.376.114.13.171.315.171.556v.674c0 .296-.11.445-.329.445-.12 0-.297-.063-.536-.185-.799-.366-1.698-.554-2.698-.554-.864 0-1.537.141-2.017.424-.48.282-.719.719-.719 1.32 0 .43.153.79.452 1.082.3.297.858.57 1.677.83l2.138.678c1.079.345 1.857.83 2.335 1.454.476.62.715 1.329.715 2.127 0 .641-.131 1.214-.386 1.717a3.687 3.687 0 01-1.094 1.303c-.468.36-1.029.63-1.684.82-.65.186-1.363.282-2.138.282z"/></svg>
