
<svg xmlns="http://www.w3.org/2000/svg" viewBox="0 0 24 24" fill="#ffffff"><path d="M12 12.765c0 2.511-1.26 4.545-2.812 4.545-1.55 0-2.811-2.034-2.811-4.545 0-2.512 1.261-4.546 2.811-4.546 1.552 0 2.812 2.034 2.812 4.546zm9.38-4.752C19.838 9.022 17.79 9.647 16.057 9.6c-1.469-.04-2.466-.55-2.78-1.591-.37-1.223.438-2.496 2.286-3.956-2.164.04-3.57.905-4.104 2.746-.275.938-.09 1.858.545 2.756-1.208.062-2.745-3.164-2.745-6.604 0 0-1.34 2.478-1.34 5.352 0 1.948.578 3.754 1.34 3.933-.697-.132-1.597-1.759-1.883-3.16-.087 2.561.844 5.152 2.485 5.152.84 0 1.766-.913 2.58-2.244.45.51.912.952 1.268 1.287C12.628 14.641 10.965 15.027 9 15.027c-1.494 0-2.926-.287-4.075-.714C3.25 19.33 7.01 24 11.63 24c5.538 0 10.744-6.067 10.744-12.409 0-1.392-.18-2.746-.51-3.996-.47.378-1.04.606-1.643.632-.988.041-1.87-.374-2.173-1.343-.307-.98.075-1.999 1.052-2.837-3.312-.419-3.12 3.37-3.12 3.37l.055-.614c.048-.616.082-.615-.063 0z"/></svg>
