
<svg xmlns="http://www.w3.org/2000/svg" viewBox="0 0 24 24" fill="#ffffff"><path d="M20.205 10.457c-.571-.326-1.246-.582-2.058-.801l.075-.145c.486.126.963.232 1.424.317.462.086.901.128 1.317.128a7.157 7.157 0 0 0 1.038-.075V8.512a7.41 7.41 0 0 1-1.038.075 8.831 8.831 0 0 1-1.317-.111 11.52 11.52 0 0 1-1.424-.317 12.355 12.355 0 0 1-1.44-.507 12.38 12.38 0 0 1-1.375-.678c-.89.258-1.834.462-2.832.61A20.525 20.525 0 0 1 9.168 8.1a19.375 19.375 0 0 1-3.238.256c-.53 0-1.038-.022-1.523-.067v1.369c.485.045.992.067 1.523.067a19.61 19.61 0 0 0 3.238-.272c1.038-.18 2.058-.429 3.057-.745-.43.258-.832.53-1.203.816a9.11 9.11 0 0 0-1.01.922c-.617-.1-1.263-.149-1.938-.149a10.26 10.26 0 0 0-3.164.467A10.29 10.29 0 0 0 3.238 12v1.461a8.847 8.847 0 0 1 2.672-1.27 9.255 9.255 0 0 1 2.865-.428c.96 0 1.88.157 2.76.47-1.76 2.58-1.523 5.13-1.31 6.94.212 1.808 1.523 1.16 1.523 1.16s-.225-2.587.714-5.025c.93-2.44 2.226-2.889 2.226-2.889-.046 1.355.19 5.09 1.188 6.045.997.952 1.76-.075 1.76-.075s-.737-2.123-1.01-4.823c-.278-2.7.338-3.951.743-4.584.398-.646.789-1.08 1.16-1.302.81.413 1.236.855 1.327 1.354V8.55c-.1.466-.511.877-1.237 1.233-.428.214-.938.397-1.53.548-.6.165-1.26.3-1.985.405-1.418.21-2.927.3-4.525.27a23.475 23.475 0 0 1-4.374-.504A22.863 22.863 0 0 1 4.43 9.925 16.692 16.692 0 0 1 2.4 9.129a8.925 8.925 0 0 1-1.275-.737c-.33-.232-.563-.465-.72-.697V9.17c.142.217.34.42.617.637.247.2.585.4.996.592.42.18.886.36 1.402.54.53.181 1.069.346 1.613.497A22.724 22.724 0 0 0 8.957 12.1a23.896 23.896 0 0 0 4.374.384c1.598 0 3.057-.075 4.36-.233.67-.09 1.284-.189 1.85-.309.577-.12 1.04-.24 1.387-.384.398-.157.705-.33.938-.52.232-.188.33-.376.33-.563V9.22c-.166.24-.399.51-.72.772a4.265 4.265 0 0 1-1.27.774z"/></svg>
