
<svg xmlns="http://www.w3.org/2000/svg" viewBox="0 0 24 24" fill="#ffffff"><path d="M6 2a2 2 0 012 2v16a2 2 0 01-2 2H4a2 2 0 01-2-2V4a2 2 0 012-2h2m5 0h7a2 2 0 012 2v4.045c-.23-.033-.46-.045-.691-.045l-.04 2c.339.037.568.052.731.1V8h-6v2h3.687c-.648.547-1.325 1.23-1.844 1.889-.93-.321-1.904-.889-1.889-.889H8V4a2 2 0 012-2m5 14c2.656 0 8 .133 8 4v2H8v-2c0-3.868 5.344-4 8-4m-7-1l3 2-3 2.019V15m7-3a4 4 0 110 8 4 4 0 110-8m0 6.38c.662 0 1.288.123 1.85.326-1.479.364-3.121.365-3.701.365-.568 0-1.102-.369-1.133-.326.494-.173 1.32-.365 2.984-.365M16 3h3v1h-3V3m-5 9.5a2.5 2.5 0 10.001 5.001A2.5 2.5 0 0011 12.5m0 .688c.621 0 1.167.29 1.525.737-.525.146-1.026.433-1.525.433s-1-.286-1.525-.433c.358-.448.904-.737 1.525-.737Z"/></svg>
