
<svg xmlns="http://www.w3.org/2000/svg" viewBox="0 0 24 24" fill="#ffffff"><path d="M11.654.174V2.377H9.682v.58h1.972V5.16h.696V2.957h1.97v-.58h-1.97V.174h-.696zm6.03 2.262v2.785h-2.41v.695h2.41v2.782h.752V5.916h2.408v-.695h-2.408V2.436h-.753zm-12.315.53V5.47H3.159v.637h2.21v2.705h.636V6.107h2.21V5.47h-2.21V2.967h-.636zM11.654 5.75v2.899H9.213v.752h2.441v2.898h.696V9.401h2.44v-.752h-2.44V5.75h-.696zm-6.033 3.08v2.32H3.306v.53h2.315v2.319h.585v-2.32h2.317v-.53H6.206V8.83h-.585zm12.315.113v2.262H15.62v.476h2.315v2.261h.532v-2.261h2.317v-.476h-2.317V8.943h-.532zm-18.04 1.941v1.75H0v.42h-.104.104v-.005.005 1.745h.441V11.05h1.75v-.421H.441V9.965h-.441v.919zm18.04 3.936v2.261H15.62v.477h2.315v2.262h.532v-2.262h2.317v-.477h-2.317v-2.261h-.532zm-6.007.225v2.9H9.213v.751h2.441v2.898h.696v-2.898h2.44v-.752h-2.44v-2.899h-.696zm-6.308.475v2.317H3.306v.53h2.315v2.32h.585v-2.32h2.317v-.53H6.206v-2.317h-.585zm12.195 5.402v2.203h-1.972v.58h1.972v2.204h.696v-2.204h1.97v-.58h-1.97v-2.203h-.696z"/></svg>
